<?xml version="1.0" encoding="utf-8"?>
<!-- Generator: Adobe Illustrator 26.5.0, SVG Export Plug-In . SVG Version: 6.00 Build 0)  -->
<svg version="1.1" id="Layer_1" xmlns="http://www.w3.org/2000/svg" xmlns:xlink="http://www.w3.org/1999/xlink" x="0px" y="0px"
	 viewBox="0 0 16 16" style="enable-background:new 0 0 16 16;" xml:space="preserve">
<style type="text/css">
	.st0{fill:#FFFFFF;}
</style>
<path class="st0" d="M5.76,1.07c0.24,0.14,0.31,0.45,0.17,0.69c0,0,0,0,0,0L3.38,6h9.23l-2.55-4.24c-0.14-0.24-0.06-0.54,0.17-0.69
	s0.54-0.06,0.69,0.17L13.78,6H15c0.55,0,1,0.45,1,1v1c0,0.55-0.45,1-1,1v4.5c0,1.38-1.12,2.5-2.5,2.5h-9C2.12,16,1,14.88,1,13.5V9
	C0.45,9,0,8.55,0,8V7c0-0.55,0.45-1,1-1h1.22l2.85-4.76C5.21,1.01,5.52,0.93,5.76,1.07C5.76,1.07,5.76,1.07,5.76,1.07L5.76,1.07z
	 M2,9v4.5C2,14.33,2.67,15,3.5,15h9c0.83,0,1.5-0.67,1.5-1.5V9H2z M1,7v1h14V7H1z M4,10c0.28,0,0.5,0.22,0.5,0.5v3
	C4.5,13.78,4.28,14,4,14s-0.5-0.22-0.5-0.5v-3C3.5,10.22,3.72,10,4,10z M6,10c0.28,0,0.5,0.22,0.5,0.5v3C6.5,13.78,6.28,14,6,14
	s-0.5-0.22-0.5-0.5v-3C5.5,10.22,5.72,10,6,10z M8,10c0.28,0,0.5,0.22,0.5,0.5v3C8.5,13.78,8.28,14,8,14c-0.28,0-0.5-0.22-0.5-0.5
	v-3C7.5,10.22,7.72,10,8,10z M10,10c0.28,0,0.5,0.22,0.5,0.5v3c0,0.28-0.22,0.5-0.5,0.5s-0.5-0.22-0.5-0.5v-3
	C9.5,10.22,9.72,10,10,10z M12,10c0.28,0,0.5,0.22,0.5,0.5v3c0,0.28-0.22,0.5-0.5,0.5s-0.5-0.22-0.5-0.5v-3
	C11.5,10.22,11.72,10,12,10z"/>
</svg>
