<?xml version="1.0" encoding="utf-8"?>
<!-- Generator: Adobe Illustrator 26.5.0, SVG Export Plug-In . SVG Version: 6.00 Build 0)  -->
<svg version="1.1" id="Layer_1" xmlns="http://www.w3.org/2000/svg" xmlns:xlink="http://www.w3.org/1999/xlink" x="0px" y="0px"
	 viewBox="0 0 76 76" style="enable-background:new 0 0 76 76;" xml:space="preserve">
<style type="text/css">
	.st0{fill:none;}
	.st1{fill:#E9AA7C;}
	.st2{fill:#FFFFFF;}
</style>
<line class="st0" x1="28.7" y1="-14.4" x2="89.5" y2="44.1"/>
<line class="st0" x1="5.8" y1="7.6" x2="65.1" y2="67"/>
<path class="st1" d="M67.4,66.5c-4-1-7.6-2.4-11.2-3.8C51.5,58,38.6,45.1,33.7,40.2C28.5,35,16.3,22.7,11.2,17.7
	c-1.4-3.5-2.8-7.3-3.8-11.2l0,0c3.9,1,7.7,2.4,11.2,3.8c4.9,5.1,17.3,17.4,22.5,22.6c4.9,4.9,17.7,17.7,22.5,22.5
	C65,59,66.4,62.6,67.4,66.5"/>
<g>
	<rect x="19" y="17.7" transform="matrix(0.7071 -0.7071 0.7071 0.7071 -9.417 23.9445)" class="st2" width="10.4" height="11.3"/>
</g>
<line class="st0" x1="8" y1="66.6" x2="67.7" y2="7"/>
<path class="st1" d="M8,67.6c1-3.9,1.8-8.3,3.2-11.8c5.1-4.9,17.4-17.3,22.5-22.4c4.9-4.9,17.7-17.7,22.5-22.5
	C59.8,9.5,64,8.7,68,7.7c-1,4-3,6.9-4.4,10.5C58.9,22.9,46,35.8,41.1,40.7c-5.2,5.2-17.5,17.4-22.4,22.5C15.2,64.6,12,66.7,8,67.6"
	/>
<g>
	
		<rect x="32" y="31.6" transform="matrix(0.7071 -0.7071 0.7071 0.7071 -14.9737 37.4228)" class="st2" width="11.3" height="10.4"/>
</g>
<g>
	
		<rect x="45.4" y="18.2" transform="matrix(0.7071 -0.7071 0.7071 0.7071 -1.5916 42.9659)" class="st2" width="11.3" height="10.4"/>
</g>
<g>
	
		<rect x="18.8" y="44.9" transform="matrix(0.7071 -0.7071 0.7071 0.7071 -28.22 31.9361)" class="st2" width="11.3" height="10.4"/>
</g>
</svg>
