<?xml version="1.0" encoding="utf-8"?>
<!-- Generator: Adobe Illustrator 26.5.0, SVG Export Plug-In . SVG Version: 6.00 Build 0)  -->
<svg version="1.1" id="Layer_1" xmlns="http://www.w3.org/2000/svg" xmlns:xlink="http://www.w3.org/1999/xlink" x="0px" y="0px"
	 viewBox="0 0 391.2 391.2" style="enable-background:new 0 0 391.2 391.2;" xml:space="preserve">
<style type="text/css">
	.st0{fill:#C38D9E;stroke:#FFFFFF;stroke-width:3;stroke-miterlimit:10;}
	.st1{fill:#FFFFFF;}
	.st2{fill:none;stroke:#FFFFFF;stroke-width:18;stroke-miterlimit:10;}
</style>
<rect x="0" y="0" class="st0" width="391.2" height="391.2"/>
<g>
	<g>
		<path class="st1" d="M48.6,169.5c20.9-8.2,40.7-18.8,60.6-29.2c19.6-10.3,39.4-20.4,60.4-27.6c5.2-1.8,10.4-3.4,15.7-4.7
			c2.7-0.7,5.4-1.3,8.1-1.9c2.5-0.5,5.1-1.1,7.7-0.9c5.3,0.4,7.2,5.7,9,9.9c2.4,5.6,4.8,11.2,7.2,16.8c9.5,23,18.3,46.4,26.1,70
			c3.9,11.8,7.6,23.7,11.1,35.6c1.7,5.9,3.7,11.9,4.9,18c0.9,4.9,0.6,9.9-2,14.1c-4.1,6.5-12.6,9.5-20,11.2c-4.4,1-8.8,1.7-13.2,2.3
			c-6.3,0.9-12.5,1.8-18.8,2.9c-12.1,2.2-24.3,4.7-36.2,8.1c-5.6,1.6-11.2,3.6-16.4,6.4c-5,2.7-9.4,6.3-13.8,9.8
			c-4.3,3.4-8.7,6.7-13.8,9c-5.3,2.5-11.1,3.7-16.8,5c-2.4,0.5-5.2,1.4-7.6,0.5c-1.9-0.7-3-2.4-3.7-4.2c-0.9-2.3-1.4-4.8-1.9-7.2
			c-0.6-3.1-1.2-6.2-1.6-9.3c-3.7-24.1-3.5-48.8-10-72.5c-5.7-20.5-16.2-39.7-30.4-55.6c-3.4-3.9-7.1-7.5-10.9-11
			c-2.4-2.1-5.9,1.4-3.5,3.5c16,14.3,28.6,32.5,36.2,52.5c4.2,11,6.7,22.5,8.4,34.2c1.7,12.4,2.5,24.8,3.9,37.2
			c0.7,6.3,1.5,12.6,2.7,18.9c0.9,5,1.6,10.7,4.9,14.9c1.8,2.2,4.2,3.4,7,3.7c2.9,0.3,6-0.5,8.8-1.2c6-1.4,11.9-2.9,17.5-5.5
			c10.3-4.9,17.9-13.8,28-19c5.2-2.7,10.9-4.6,16.6-6.1c6-1.6,12.1-3,18.2-4.4c12.4-2.7,24.9-4.7,37.4-6.4c8.6-1.2,17.6-3,25.1-7.6
			c3.6-2.2,6.8-5.2,8.8-8.9c2.8-5.1,3-10.9,2-16.5c-1.1-6.2-3.1-12.2-4.9-18.3c-1.8-6-3.6-12.1-5.5-18.1
			c-7.6-24.2-16-48.2-25.4-71.8c-4.7-11.8-9.5-23.5-14.6-35.1c-2.2-5-5-9.9-10.8-11c-5.6-1-11.5,0.8-16.9,2.1
			c-22,5.4-42.8,14.7-62.9,24.8c-20.3,10.2-40.1,21.4-60.8,30.8c-5,2.3-10.1,4.4-15.2,6.5c-1.3,0.5-2.1,1.7-1.8,3.1
			C45.9,168.9,47.3,170,48.6,169.5L48.6,169.5z"/>
	</g>
</g>
<g>
	<g>
		<path class="st1" d="M43.2,169.7c9.3-13.7,18.6-27.3,28.4-40.7c9.7-13.3,19.9-26.2,31-38.4c2.7-3,5.4-6,8.3-8.8
			c1.3-1.2,2.6-2.3,4.2-3c1.7-0.8,3.7-1,5.5-1.1c8.8-0.7,17.7-1,26.5-1.6c17.9-1,35.7-2.1,53.6-3.1s35.7-2.1,53.6-3.1
			c2.2-0.1,4.5-0.3,6.7-0.4c-0.4-1.6-0.8-3.1-1.3-4.7c-14.5,8.9-29,17.8-43.5,26.7c-4.2,2.6-8.4,5.1-12.5,7.7
			c-2.7,1.7-0.2,6,2.5,4.3c14.5-8.9,29-17.8,43.5-26.7c4.2-2.6,8.4-5.1,12.5-7.7c2-1.2,1.3-4.8-1.3-4.7c-18.1,1.1-36.2,2.1-54.4,3.1
			c-18.1,1.1-36.2,2.1-54.4,3.1c-9.1,0.5-18.3,1.1-27.4,1.6c-4.2,0.2-8.5,0.3-12.4,2.1c-3.5,1.6-6.2,4.6-8.8,7.4
			c-11.6,12.3-22.2,25.4-32.3,38.9c-10,13.4-19.5,27.2-29,41.1c-1.2,1.7-2.3,3.4-3.5,5.1C37.1,169.8,41.4,172.3,43.2,169.7
			L43.2,169.7z"/>
	</g>
</g>
<g>
	<g>
		<path class="st1" d="M263.6,68.2c-0.8,13.7,2.2,27.3,7.1,40c5,13.2,11.7,25.6,18.1,38.1c6.3,12.4,12.5,25,16.4,38.4
			c1.9,6.5,3.5,13.5,3.5,20.3c0,3.7-1.5,6.5-4.2,9c-2.7,2.5-6,4.5-8.9,6.7c-12.9,9.8-24.3,21.4-33.9,34.5c-1.2,1.6-2.3,3.2-3.4,4.9
			c-1.8,2.7,2.5,5.2,4.3,2.5c9-13.3,20.1-25.3,32.7-35.4c3-2.4,6.2-4.6,9.3-7c2.9-2.2,5.9-4.6,7.5-8c1.9-3.8,1.7-7.9,1.2-12
			c-0.4-3.6-1-7.1-1.7-10.6c-3-13.8-8.8-26.7-15.1-39.3c-6.3-12.7-13.2-25.1-18.8-38.1c-5.2-12.4-9.2-25.5-9.3-39.1
			c0-1.7,0-3.4,0.1-5.1C268.8,64.9,263.8,64.9,263.6,68.2L263.6,68.2z"/>
	</g>
</g>
<g>
	<g>
		<path class="st1" d="M264.8,162.5c7.7,0,7.7-12,0-12C257,150.5,257,162.5,264.8,162.5L264.8,162.5z"/>
	</g>
</g>
<g>
	<g>
		<path class="st1" d="M263.7,163c9.6,0,9.7-15,0-15C254,148,254,163,263.7,163L263.7,163z"/>
	</g>
</g>
<g>
	<g>
		<path class="st1" d="M265.7,160.4c0.6-0.6,1.2-1.3,1.9-1.8c-0.6,0.5-0.6,0.5,0.1,0c0.7-0.4,0.8-0.4,0.3-0.2
			c-1.1,0-1.6,0.2-2.7-0.3c1.1,0.7,0.7,0.3-1.1-1.3c-0.4-2.5-0.5-3.1-0.6-1.8c1.2-2.2,2.5-4.3,3.7-6.5c-2.1,1,1.1-0.2-1.1,0.4
			c-1.4,0.4-0.3,0.1,0.2,0.2c3.4,0.6,3.4,5.1,1.4,7.2c2.7-2.9,3-7.8,0-10.6c-2.9-2.7-7.7-3-10.6,0c-4.1,4.3-3.8,11.2,0.6,15.2
			c5,4.6,11.5,3.1,17,0.5c2.5-1.2,3.5-4,3.7-6.5c0.5-5.9-4.7-10.6-10.2-11.3c-5.4-0.7-9.8,2.4-13.4,6c-2.8,2.8-3,7.9,0,10.6
			C258.1,163.2,262.7,163.4,265.7,160.4L265.7,160.4z"/>
	</g>
</g>
<g>
	<g>
		<path class="st1" d="M95.1,114.8c-2.5,4-1.7,9.6,1.7,12.8c3.9,3.7,10.4,3.6,14.2-0.3c0.7-0.7,1.3-1.5,1.8-2.3
			c1.4-2.6,1.4-5.4,0.2-8c-0.8-1.7-2.4-3.3-4-4.2c-1.7-0.9-3.7-1.5-5.7-1.5c-1,0-2.1,0.2-3,0.5c-1.8,0.6-2.6,1.2-4.1,2.4
			c-2,1.6-2.6,4.9-1.9,7.3c1,3.6,3.8,6.5,7.5,7.4c1.9,0.5,4.1,0.2,5.8-0.8c1.6-0.9,3-2.7,3.4-4.5c0.9-3.9-1.2-8.2-5.2-9.2
			c-0.2,0-0.4-0.1-0.5-0.2c0.6,0.2,1.2,0.5,1.8,0.8c-0.3-0.1-0.5-0.2-0.7-0.4c0.5,0.4,1,0.8,1.5,1.2c-0.2-0.2-0.4-0.4-0.6-0.6
			c0.4,0.5,0.8,1,1.2,1.5c-0.1-0.1-0.2-0.3-0.3-0.5c0.2,0.6,0.5,1.2,0.8,1.8c-0.1-0.2-0.1-0.3-0.2-0.5c-0.6,2.4-1.3,4.9-1.9,7.3
			c0.1,0,0.1-0.1,0.2-0.1c-0.5,0.4-1,0.8-1.5,1.2c0.2-0.1,0.4-0.2,0.6-0.3c-0.6,0.2-1.2,0.5-1.8,0.8c0.2-0.1,0.4-0.1,0.6-0.2
			c-0.7,0.1-1.3,0.2-2,0.3c0.3,0,0.6,0,0.9,0c-0.7-0.1-1.3-0.2-2-0.3c0.3,0,0.6,0.1,0.9,0.2c-0.6-0.2-1.2-0.5-1.8-0.8
			c0.3,0.1,0.5,0.3,0.8,0.4c-0.5-0.4-1-0.8-1.5-1.2c0.2,0.2,0.4,0.4,0.6,0.6c-0.4-0.5-0.8-1-1.2-1.5c0.1,0.2,0.2,0.4,0.3,0.6
			c-0.2-1.9-0.5-3.9-0.8-5.8c0,0.2-0.1,0.3-0.2,0.5c0.2-0.6,0.5-1.2,0.8-1.8c-0.1,0.1-0.1,0.3-0.2,0.4c0.4-0.5,0.8-1,1.2-1.5
			c-0.2,0.2-0.3,0.4-0.5,0.5c0.5-0.4,1-0.8,1.5-1.2c-0.2,0.2-0.4,0.3-0.6,0.4c0.6-0.2,1.2-0.5,1.8-0.8c-0.3,0.1-0.6,0.2-1,0.3
			c0.7-0.1,1.3-0.2,2-0.3c-0.2,0-0.3,0-0.5,0c0.7,0.1,1.3,0.2,2,0.3c-0.3,0-0.5-0.1-0.7-0.2c0.6,0.2,1.2,0.5,1.8,0.8
			c-0.1-0.1-0.3-0.1-0.4-0.2c0.5,0.4,1,0.8,1.5,1.2c-0.2-0.1-0.4-0.3-0.5-0.5c0.4,0.5,0.8,1,1.2,1.5c-0.1-0.2-0.3-0.4-0.4-0.6
			c0.2,0.6,0.5,1.2,0.8,1.8c-0.1-0.3-0.2-0.6-0.3-0.9c0.1,0.7,0.2,1.3,0.3,2c0-0.2,0-0.5,0-0.7c-0.1,0.7-0.2,1.3-0.3,2
			c0-0.2,0.1-0.5,0.2-0.7c-0.2,0.6-0.5,1.2-0.8,1.8c0.1-0.1,0.1-0.3,0.2-0.4c2.1-3.3,0.8-8.4-2.7-10.3
			C101.7,110.2,97.3,111.2,95.1,114.8L95.1,114.8z"/>
	</g>
</g>
<g>
	<g>
		<path class="st1" d="M175.2,79.6c-1,1.1-2,2.2-3,3.4c-2.8,3.2-2.8,7.4,0,10.6c2.3,2.7,5.8,4,9.3,4.2c3.7,0.2,6.8-1.2,9.6-3.5
			c1.4-1.1,2.2-3.6,2.2-5.3c0-1.8-0.8-4-2.2-5.3c-1.4-1.3-3.3-2.3-5.3-2.2c-2.1,0.1-3.6,0.9-5.3,2.2c1-0.7,1.1-0.9,0.5-0.5
			c1.2-0.4,1.4-0.6,0.6-0.3c-0.8,0.2-0.5,0.1,0.8-0.1c-0.3,0-0.6,0-0.8,0c1.3,0.2,1.5,0.2,0.8,0c-0.7-0.3-0.5-0.2,0.6,0.3
			c-0.7-0.4-0.5-0.3,0.5,0.5c-0.2-0.2-0.4-0.4-0.6-0.6c0,3.5,0,7.1,0,10.6c1-1.1,2-2.2,3-3.4c2.6-2.9,3.1-7.8,0-10.6
			C182.9,76.9,177.9,76.4,175.2,79.6L175.2,79.6z"/>
	</g>
</g>
<g>
	<g>
		<path class="st1" d="M193.2,82.3c-5-8.4-18.4-6.6-21,2.8c-1.1,3.8,1.3,8.3,5.2,9.2c4,0.9,8.1-1.2,9.2-5.2c0.3-1.2-0.9,1.7-0.3,0.7
			c-0.3,0.4-0.5,0.7-0.8,1.1c0.4-0.3,0.3-0.3-0.3,0.2c-0.6,0.5-0.7,0.5-0.3,0.3c-0.4,0.2-0.8,0.3-1.2,0.5c0.1,0,0.3-0.1,0.4-0.1
			c0.6-0.1,0.2-0.1-1.2,0.1c0.2,0,0.5,0,0.8,0c0.9-0.1-2-0.4-1-0.1c-2.2-0.7-1.3-0.7-0.7-0.2c-0.4-0.3-0.7-0.5-1.1-0.8
			c-0.8-1.2-1-1.4-0.6-0.8c2,3.4,6.8,4.9,10.3,2.7C193.9,90.3,195.3,85.9,193.2,82.3L193.2,82.3z"/>
	</g>
</g>
<g>
	<g>
		<path class="st1" d="M87.3,178.4c1.5,3.9,4.1,6.7,8.3,7.8c4,1.1,8.2,0,11.3-2.6c6.4-5.4,4.1-15.9-2.7-19.7
			c-8.2-4.6-17.7,2-18.4,10.8c-0.3,4.2,1.8,8.5,5.5,10.6c3.8,2.2,9.5,2.3,12.5-1.5c1.3-1.6,2.2-3.1,2.2-5.3c0-1.8-0.8-4-2.2-5.3
			c-2.7-2.5-8-3.3-10.6,0c-1.2,1.4,0.1,0.9,3.8-1.3c0.8,0,1.6,0.2,2.3,0.7c-0.5-0.3-0.5-0.3,0.1,0.1c0.5,0.3,0.8,0.7,1.1,1.2
			c0.4,1.2,0.5,1.4,0.3,0.6c0.1,1.2,0.2,1.5,0.1,0.9c0-0.6,0-0.3-0.1,0.9c0.2-0.8,0.1-0.6-0.3,0.5c0.1-0.3,0.3-0.5,0.5-0.8
			c-0.2,0.3-0.4,0.5-0.6,0.8c0.6-0.5,0.4-0.4-0.5,0.3c0.7-0.4,0.5-0.3-0.6,0.2c-0.4,0-0.7,0.1-1.1,0.1c0.8,0,0.6,0-0.7-0.2
			c0.8,0.2,0.6,0.1-0.6-0.3c-0.9-0.7-1.1-0.9-0.7-0.5c1.3,1.2-0.6-1.2,0,0c-0.4-1.1-0.5-1.3-0.4-0.8c0.2,0.6,0.1,0.3-0.1-0.9
			c0,0.8,0.1,0.6,0.2-0.7c-0.2,0.8-0.1,0.5,0.3-0.6c0.2-0.3,0.5-0.6,0.7-0.9c-0.6,0.5-0.4,0.4,0.6-0.5c1.2-0.5,1.5-0.6,0.8-0.3
			c-0.1,0-0.2,0.1-0.4,0.1c1.4-0.1,1.6-0.2,0.9-0.2c-0.8,0-0.5,0,0.9,0.1c-1.3-0.3,1.5,0.9,0.4,0.2c1,0.8,1.2,1,0.7,0.5
			c0.6,0.6,1,1.2,1.2,2c-1.4-3.6-5.1-6.6-9.2-5.2C89.1,170.3,85.8,174.5,87.3,178.4L87.3,178.4z"/>
	</g>
</g>
<g>
	<g>
		<path class="st1" d="M173.2,133.6c-3.9-0.4-7.6,2.2-9.4,5.5c-2.2,4.1-1.3,8.9,1.6,12.3c4.3,5.1,12.8,6.5,18.4,2.7
			c5.9-4,8.1-13.1,2.8-18.6c-5.2-5.4-14-4.4-18,1.9c-2.1,3.3-0.8,8.4,2.7,10.3c3.7,2,8,0.9,10.3-2.7c-1,1.6-2.7,2.3-4.5,1.8
			c1.7,0.5-1.5-0.9-2-1.7c-0.5-0.9-0.5-1.5-0.3-2.5c-0.2,1.2,0.3-0.6,0.9-1c0.2-0.2,0.5-0.3,0.9-0.4c-0.9,0.2-0.9,0.2,0,0.1
			c-0.2,0-0.5,0-0.7,0c0.9,0.1,0.9,0.1,0-0.1c0.8,0.4,1,1,0.5,0.2c1.3,1.5,1.5,3.2,0.4,5.1c-0.9,1.3-2.1,2-3.7,2.2
			c3.9,0.5,7.7-3.8,7.5-7.5C180.5,136.6,177.4,134,173.2,133.6L173.2,133.6z"/>
	</g>
</g>
<g>
	<g>
		<path class="st1" d="M205.2,239.6c-4,2.7-8.5,7.7-7.1,13c1.1,3.9,5,6.9,8.8,8.1c7.6,2.4,15.8-2.2,17.6-10
			c1.9-8.4-3.9-16.3-12.5-16.9c-3.8-0.3-7.6,1-10.4,3.6c-4,3.7-4.8,8.9-2.6,13.8c1.6,3.6,7.1,4.7,10.3,2.7c3.7-2.4,4.4-6.4,2.7-10.3
			c0.6,1.4,1,3.5-0.1,4.7c-0.8,0.6-1,0.7-0.5,0.4c0.5-0.3,0.3-0.2-0.6,0.2c0.2,0,0.3-0.1,0.5-0.2c0.8-0.2,0.7-0.2-0.5,0
			c0.2,0,0.3,0,0.5,0c0.7,0,0.7,0,0,0c-0.6-0.1-0.6-0.1,0,0.1c-0.9-0.4-1.1-0.5-0.6-0.2c0.7,0.5-1-1.1-0.1-0.1
			c-1.2-1.5,0,0.8-0.7-1.1c0.6,1.5,0-1.6,0,0c0,1.4,0.5-1.4,0,0c0.3-0.8,0.7-0.9,0-0.2c-0.6,0.7,1-1.1,0-0.2c0.4-0.4,2.3-1,1.1-0.8
			c-1.6,0.3,1.6,0.1,0,0c2.6,0.2,0,0.2,0-0.1c0.3,0.1,0.6,0.2,0.9,0.4c-0.7-0.4-0.6-0.3,0.2,0.3c-1.1-1,0.7,1.3-0.1-0.1
			c0.2,1.9,0.5,3.9,0.8,5.8c-0.6,1.7,0.8-0.8-0.3,0.5c0.3-0.3,1.7-1.4,0.5-0.5c3.2-2.2,5-6.7,2.7-10.3
			C213.4,239,208.7,237.2,205.2,239.6L205.2,239.6z"/>
	</g>
</g>
<g>
	<g>
		<path class="st1" d="M133.2,249c-7.7,1.5-15.5,5.9-15.7,14.7c-0.1,4.2,2,8.7,5.9,10.7c4.1,2.1,8.8,1.7,12.8-0.6
			c7.1-4.1,11.2-15.1,4.5-21.5c-6.4-6-18.4-2.1-18.3,7.2c0.1,3.9,3.4,7.7,7.5,7.5c4-0.2,7.6-3.3,7.5-7.5c0,1.4-1.2,3.5-2.4,4.2
			c-0.5,0.3-1,0.5-1.6,0.5c-0.7,0.1-0.8,0.1-0.1,0.1c-2.3,0-3.7-1.7-4.2-3.7c0.2-0.9,0.2-1-0.1-0.1c0.1-0.2,0.2-0.4,0.2-0.6
			c-0.4,0.6-0.5,0.8-0.1,0.4c0.3-0.4,0.2-0.3-0.2,0.3c-0.9,1,0.4-0.2-0.3,0.2c-0.5,0.3-0.4,0.2,0.3-0.1c-0.8,0.2-0.8,0.2-0.3,0.1
			c1.1,0.2,2,0.2,2.9,1c0.7,0.6,0.9,1.5,1,2.4c0-0.2,0-0.4,0-0.6c-0.2,1-0.1,1.1,0.1,0.3c-0.1,0.2-0.2,0.5-0.3,0.7
			c0.4-0.6,0.4-0.6,0.1-0.2c-0.5,0.4-1,0.8-0.1,0.2c1.5-1-1,0.2,0.7-0.4c1.4-0.4,2.7-0.7,4.1-1c3.9-0.8,6.4-5.6,5.2-9.2
			C141.1,250.1,137.4,248.2,133.2,249L133.2,249z"/>
	</g>
</g>
<g>
	<g>
		<path class="st1" d="M113.2,46.4c-20.6,1-39.9,11.9-52,28.3c-3.5,4.7-6.2,9.8-8.3,15.2c-0.5,1.3,0.5,2.7,1.8,3.1
			c1.4,0.4,2.6-0.5,3.1-1.8c6.8-17.5,22.2-31.2,40-37c5.1-1.6,10.3-2.6,15.6-2.9C116.4,51.2,116.4,46.2,113.2,46.4L113.2,46.4z"/>
	</g>
</g>
<g>
	<g>
		<path class="st1" d="M24.7,69.9c4.5-13.8,19.8-20.1,32.6-23.8c9.2-2.7,18.7-4.8,28.2-6.6c9.8-1.9,19.7-3.4,29.6-4.5
			c11.3-1.3,22.6-2,33.9-2.3c3.2-0.1,3.2-5.1,0-5c-20.8,0.5-41.6,2.6-62,6.4c-9.9,1.9-19.9,4-29.6,6.8c-7.4,2.1-14.7,4.7-21.3,8.7
			c-7.4,4.5-13.4,10.8-16.2,19C18.9,71.6,23.7,73,24.7,69.9L24.7,69.9z"/>
	</g>
</g>
<g>
	<g>
		<path class="st1" d="M336.7,229.8c-7.2,18.8-17.6,36.5-30.6,51.9c-3.7,4.4-7.7,8.7-11.8,12.7c-2.3,2.3,1.2,5.8,3.5,3.5
			c14.9-14.6,27.3-31.7,36.5-50.3c2.7-5.4,5-10.9,7.2-16.5c0.5-1.3-0.5-2.7-1.8-3.1C338.4,227.6,337.2,228.5,336.7,229.8
			L336.7,229.8z"/>
	</g>
</g>
<g>
	<g>
		<path class="st1" d="M334.9,271.2c-0.4,7.3-3.9,13.9-7.8,19.8c-4,6.1-8.5,11.9-13.3,17.5c-9.7,11.2-20.6,21.2-31.8,30.8
			c-6.4,5.4-12.9,10.7-19.4,16c-1,0.8-0.9,2.7,0,3.5c1,1,2.5,0.8,3.5,0c11.8-9.6,23.5-19.2,34.6-29.6c11-10.4,21.3-21.7,29.7-34.3
			c4.8-7.1,9-15,9.4-23.8C340.1,268,335.1,268,334.9,271.2L334.9,271.2z"/>
	</g>
</g>
<line class="st2" x1="382.1" y1="174.9" x2="382.2" y2="391.2"/>
<line class="st2" x1="378" y1="383.2" x2="161.8" y2="382.8"/>
</svg>
