<?xml version="1.0" encoding="utf-8"?>
<!-- Generator: Adobe Illustrator 26.5.0, SVG Export Plug-In . SVG Version: 6.00 Build 0)  -->
<svg version="1.1" id="Layer_1" xmlns="http://www.w3.org/2000/svg" xmlns:xlink="http://www.w3.org/1999/xlink" x="0px" y="0px"
	 viewBox="0 0 86 80" style="enable-background:new 0 0 86 80;" xml:space="preserve">
<style type="text/css">
	.st0{fill:none;}
	.st1{fill:#E9AA7C;}
	.st2{fill:#FFFFFF;}
</style>
<g>
	<g>
		<line class="st0" x1="0.8" y1="7.4" x2="85.2" y2="7.4"/>
		<path class="st1" d="M0.2,8.2c3.5-2.1,7.1-4.6,10.6-6.1c7.1,0.1,24.5,0.1,31.8,0.1c6.9,0,25,0,31.8,0c3.5,1.5,7,4,10.5,6
			c-3.5,2.1-7,2.8-10.5,4.3c-6.6,0-24.9,0-31.8,0c-7.4,0-24.7-0.1-31.8,0.1C7.4,11.2,3.7,10.4,0.2,8.2L0.2,8.2z"/>
	</g>
	<g>
		<rect x="37.3" y="2.2" class="st2" width="11.3" height="10.4"/>
	</g>
	<g>
		<rect x="56.3" y="2.2" class="st2" width="11.3" height="10.4"/>
	</g>
	<g>
		<rect x="18.6" y="2.2" class="st2" width="11.3" height="10.4"/>
	</g>
</g>
<g>
	<g>
		<line class="st0" x1="0.8" y1="39" x2="85.1" y2="37.4"/>
		<path class="st1" d="M0.2,39c3.5-2.1,7.1-5.4,10.6-6.8c7,0.1,24.5,0.1,31.8,0.1c6.9,0,25,0,31.8,0c3.5,1.5,7.1,3.1,10.6,5.2
			c-3.5,2.1-7.1,3.7-10.6,5.2c-6.6,0-24.9,0-31.8,0c-7.4,0-24.7-0.1-31.8,0.1C7.3,41.1,3.7,41.1,0.2,39L0.2,39z"/>
		<g>
			<rect x="56.2" y="32.2" class="st2" width="11.3" height="10.4"/>
		</g>
		<g>
			<rect x="36.4" y="32.2" class="st2" width="11.3" height="10.4"/>
		</g>
	</g>
	<g>
		<g>
			<line class="st0" x1="0.1" y1="70.8" x2="84" y2="70.8"/>
			<path class="st1" d="M0.5,68.8c3.5-2.1,7.1-3.8,10.6-5.2c7,0.1,24.5,0.1,31.8,0.1c7,0,25.1,0,31.8,0c3.6,1.5,7.1,3.1,10.6,5.2
				c-3.5,2.1-7.1,3.7-10.6,5.2c-6.7,0-24.9,0-31.8,0c-7.4,0-24.7-0.1-31.8,0.1C7.6,72.6,3.9,70.9,0.5,68.8L0.5,68.8z"/>
		</g>
		<g>
			<rect x="18.6" y="63.7" class="st2" width="11.3" height="10.4"/>
		</g>
	</g>
</g>
</svg>
