<?xml version="1.0" encoding="UTF-8"?>
<svg id="Lager_1" data-name="Lager 1" xmlns="http://www.w3.org/2000/svg" viewBox="0 0 1000 193.42">
  <defs>
    <style>
      .cls-1 {
        fill: #41b3a3;
      }
    </style>
  </defs>
  <path class="cls-1" d="M1000,193.42H0V102.86C50.96,50.96,107.12,20.34,172.41,7.75c201.15-38.79,335.32,78.01,409.51,128.57,39.77,27.1,91.36,49.77,168.72,49.35,65.77-.36,87.92,.28,160.49-29.56,17.53-7.21,74.62-36.25,88.87-47.47"/>
  <path class="cls-1" d="M1000,193.42H0V102.86C50.96,50.96,107.12,20.34,172.41,7.75c201.15-38.79,335.32,78.01,409.51,128.57,39.77,27.1,91.36,49.77,168.72,49.35,65.77-.36,87.92,.28,160.49-29.56,17.53-7.21,74.62-36.25,88.87-47.47"/>
</svg>