<?xml version="1.0" encoding="utf-8"?>
<!-- Generator: Adobe Illustrator 26.5.0, SVG Export Plug-In . SVG Version: 6.00 Build 0)  -->
<svg version="1.1" id="Layer_1" xmlns="http://www.w3.org/2000/svg" xmlns:xlink="http://www.w3.org/1999/xlink" x="0px" y="0px"
	 viewBox="0 0 442.4 130" style="enable-background:new 0 0 442.4 130;" xml:space="preserve">
<style type="text/css">
	.st0{fill:none;}
	.st1{fill:#E9A97C;}
	.st2{fill:#FFFFFF;}
</style>
<g>
	<line class="st0" x1="4.1" y1="8.3" x2="443.1" y2="8.3"/>
	<path class="st1" d="M1.2,8.3c18-3.4,36.9-6.2,55.1-8.6C93-0.1,183.9-0.2,221.7-0.2c36.1,0,130.3,0,165.4,0
		c18.4,2.5,36.8,5.1,55.1,8.5c-18.3,3.4-36.7,6-55.1,8.5c-34.6,0-129.5,0-165.4,0c-38.3,0-128.3-0.1-165.4,0.1
		C38.2,14.5,19.3,11.8,1.2,8.3L1.2,8.3z"/>
</g>
<g>
	<rect x="194.1" y="-0.2" class="st2" width="59" height="17"/>
</g>
<g>
	<rect x="292.6" y="-0.2" class="st2" width="59" height="17"/>
</g>
<g>
	<rect x="96.6" y="-0.2" class="st2" width="59" height="17"/>
</g>
<g>
	<line class="st0" x1="4" y1="58.7" x2="443" y2="58.7"/>
	<path class="st1" d="M1.2,58.7c18-3.4,36.9-6.2,55.1-8.6c36.6,0.2,127.5,0.1,165.4,0.1c36.1,0,130.3,0,165.4,0
		c18.4,2.5,36.8,5.1,55.1,8.5c-18.3,3.4-36.7,6-55.1,8.5c-34.6,0-129.5,0-165.4,0c-38.3,0-128.3-0.1-165.4,0.1
		C38.1,64.9,19.2,62.2,1.2,58.7L1.2,58.7z"/>
	<g>
		<rect x="292.5" y="50.2" class="st2" width="59" height="17"/>
	</g>
	<g>
		<rect x="190.6" y="50.3" class="st2" width="59" height="17"/>
	</g>
	<g>
		<line class="st0" x1="0.7" y1="110.9" x2="437.5" y2="110.9"/>
		<path class="st1" d="M0.7,110.9c18-3.4,37-6.2,55.2-8.6c36.6,0.2,127.7,0.1,165.7,0.1c36.2,0,130.6,0,165.7,0
			c18.5,2.5,36.9,5.1,55.2,8.5c-18.4,3.4-36.8,6-55.2,8.5c-34.7,0-129.7,0-165.7,0c-38.4,0-128.5-0.1-165.7,0.1
			C37.7,117,18.7,114.3,0.7,110.9L0.7,110.9z"/>
	</g>
	<g>
		<rect x="96.6" y="102.3" class="st2" width="59" height="17"/>
	</g>
</g>
</svg>
